<mxfile host="app.diagrams.net" modified="2023-07-24T16:01:53.759Z" agent="Mozilla/5.0 (X11; Linux x86_64) AppleWebKit/537.36 (KHTML, like Gecko) Chrome/114.0.0.0 Safari/537.36" etag="C36H1qdpHJoCRcfpdnb0" version="21.6.3" type="github">
  <diagram name="Page-1" id="hlpe3HDvRwnY9zBwgGZH">
    <mxGraphModel dx="1328" dy="720" grid="1" gridSize="10" guides="1" tooltips="1" connect="1" arrows="1" fold="1" page="1" pageScale="1" pageWidth="827" pageHeight="1169" math="0" shadow="0">
      <root>
        <mxCell id="0" />
        <mxCell id="1" parent="0" />
        <mxCell id="d_jsHuiSVQQN2BJJEdMS-1" style="edgeStyle=orthogonalEdgeStyle;rounded=0;orthogonalLoop=1;jettySize=auto;html=1;" parent="1" source="d_jsHuiSVQQN2BJJEdMS-4" target="d_jsHuiSVQQN2BJJEdMS-16" edge="1">
          <mxGeometry relative="1" as="geometry" />
        </mxCell>
        <mxCell id="d_jsHuiSVQQN2BJJEdMS-2" style="edgeStyle=orthogonalEdgeStyle;rounded=0;orthogonalLoop=1;jettySize=auto;html=1;" parent="1" source="d_jsHuiSVQQN2BJJEdMS-4" target="d_jsHuiSVQQN2BJJEdMS-15" edge="1">
          <mxGeometry relative="1" as="geometry" />
        </mxCell>
        <mxCell id="d_jsHuiSVQQN2BJJEdMS-3" style="edgeStyle=orthogonalEdgeStyle;rounded=0;orthogonalLoop=1;jettySize=auto;html=1;" parent="1" source="d_jsHuiSVQQN2BJJEdMS-4" target="d_jsHuiSVQQN2BJJEdMS-17" edge="1">
          <mxGeometry relative="1" as="geometry" />
        </mxCell>
        <mxCell id="d_jsHuiSVQQN2BJJEdMS-4" value="Subscription" style="image;aspect=fixed;html=1;points=[];align=center;fontSize=12;image=img/lib/azure2/general/Subscriptions.svg;" parent="1" vertex="1">
          <mxGeometry x="332" y="622" width="44" height="71" as="geometry" />
        </mxCell>
        <mxCell id="d_jsHuiSVQQN2BJJEdMS-5" value="Sales" style="image;aspect=fixed;html=1;points=[];align=center;fontSize=12;image=img/lib/azure2/general/Resource_Groups.svg;" parent="1" vertex="1">
          <mxGeometry x="792" y="792" width="68" height="64" as="geometry" />
        </mxCell>
        <mxCell id="d_jsHuiSVQQN2BJJEdMS-6" style="edgeStyle=orthogonalEdgeStyle;rounded=0;orthogonalLoop=1;jettySize=auto;html=1;" parent="1" source="d_jsHuiSVQQN2BJJEdMS-8" target="d_jsHuiSVQQN2BJJEdMS-19" edge="1">
          <mxGeometry relative="1" as="geometry" />
        </mxCell>
        <mxCell id="d_jsHuiSVQQN2BJJEdMS-7" style="edgeStyle=orthogonalEdgeStyle;rounded=0;orthogonalLoop=1;jettySize=auto;html=1;" parent="1" source="d_jsHuiSVQQN2BJJEdMS-8" target="d_jsHuiSVQQN2BJJEdMS-21" edge="1">
          <mxGeometry relative="1" as="geometry" />
        </mxCell>
        <mxCell id="CHr8Pcl43sH1Nul4fG_y-6" style="edgeStyle=orthogonalEdgeStyle;rounded=0;orthogonalLoop=1;jettySize=auto;html=1;" parent="1" source="d_jsHuiSVQQN2BJJEdMS-8" target="CHr8Pcl43sH1Nul4fG_y-3" edge="1">
          <mxGeometry relative="1" as="geometry" />
        </mxCell>
        <mxCell id="d_jsHuiSVQQN2BJJEdMS-8" value="IT Management Group&lt;br&gt;" style="image;aspect=fixed;html=1;points=[];align=center;fontSize=12;image=img/lib/azure2/general/Management_Groups.svg;" parent="1" vertex="1">
          <mxGeometry x="507.94000000000005" y="430" width="64.97" height="63" as="geometry" />
        </mxCell>
        <mxCell id="d_jsHuiSVQQN2BJJEdMS-9" style="edgeStyle=orthogonalEdgeStyle;rounded=0;orthogonalLoop=1;jettySize=auto;html=1;" parent="1" source="d_jsHuiSVQQN2BJJEdMS-12" target="d_jsHuiSVQQN2BJJEdMS-14" edge="1">
          <mxGeometry relative="1" as="geometry" />
        </mxCell>
        <mxCell id="d_jsHuiSVQQN2BJJEdMS-10" style="edgeStyle=orthogonalEdgeStyle;rounded=0;orthogonalLoop=1;jettySize=auto;html=1;" parent="1" source="d_jsHuiSVQQN2BJJEdMS-12" target="d_jsHuiSVQQN2BJJEdMS-13" edge="1">
          <mxGeometry relative="1" as="geometry" />
        </mxCell>
        <mxCell id="d_jsHuiSVQQN2BJJEdMS-11" style="edgeStyle=orthogonalEdgeStyle;rounded=0;orthogonalLoop=1;jettySize=auto;html=1;" parent="1" source="d_jsHuiSVQQN2BJJEdMS-12" target="d_jsHuiSVQQN2BJJEdMS-5" edge="1">
          <mxGeometry relative="1" as="geometry" />
        </mxCell>
        <mxCell id="d_jsHuiSVQQN2BJJEdMS-12" value="Subscription" style="image;aspect=fixed;html=1;points=[];align=center;fontSize=12;image=img/lib/azure2/general/Subscriptions.svg;" parent="1" vertex="1">
          <mxGeometry x="714" y="622" width="44" height="71" as="geometry" />
        </mxCell>
        <mxCell id="d_jsHuiSVQQN2BJJEdMS-13" value="&lt;span style=&quot;color: rgb(34, 34, 34); font-family: &amp;quot;Segoe UI&amp;quot;, serif; font-size: 16px; font-style: normal; font-variant-ligatures: normal; font-variant-caps: normal; font-weight: 400; letter-spacing: normal; orphans: 2; text-align: right; text-indent: 0px; text-transform: none; widows: 2; word-spacing: 0px; -webkit-text-stroke-width: 0px; background-color: rgb(255, 255, 255); text-decoration-thickness: initial; text-decoration-style: initial; text-decoration-color: initial; float: none; display: inline !important;&quot;&gt;Marketing&lt;/span&gt;" style="image;aspect=fixed;html=1;points=[];align=center;fontSize=12;image=img/lib/azure2/general/Resource_Groups.svg;" parent="1" vertex="1">
          <mxGeometry x="703" y="761" width="68" height="64" as="geometry" />
        </mxCell>
        <mxCell id="d_jsHuiSVQQN2BJJEdMS-14" value="Product Development" style="image;aspect=fixed;html=1;points=[];align=center;fontSize=12;image=img/lib/azure2/general/Resource_Groups.svg;" parent="1" vertex="1">
          <mxGeometry x="612" y="792" width="68" height="64" as="geometry" />
        </mxCell>
        <mxCell id="d_jsHuiSVQQN2BJJEdMS-15" value="Sales&lt;br&gt;" style="image;aspect=fixed;html=1;points=[];align=center;fontSize=12;image=img/lib/azure2/general/Resource_Groups.svg;" parent="1" vertex="1">
          <mxGeometry x="410" y="792" width="68" height="64" as="geometry" />
        </mxCell>
        <mxCell id="d_jsHuiSVQQN2BJJEdMS-16" value="&lt;p style=&quot;margin-bottom: 0in; direction: rtl; line-height: 1px; text-align: right; background-image: initial; background-position: initial; background-size: initial; background-repeat: initial; background-attachment: initial; background-origin: initial; background-clip: initial; font-size: medium; margin-top: 0.19in;&quot; align=&quot;left&quot;&gt;&lt;font color=&quot;#222222&quot;&gt;&lt;font face=&quot;Segoe UI, serif&quot;&gt;&lt;font style=&quot;font-size: 12pt;&quot;&gt;Marketing&lt;/font&gt;&lt;/font&gt;&lt;/font&gt;&lt;/p&gt;" style="image;aspect=fixed;html=1;points=[];align=center;fontSize=12;image=img/lib/azure2/general/Resource_Groups.svg;" parent="1" vertex="1">
          <mxGeometry x="320" y="758" width="68" height="64" as="geometry" />
        </mxCell>
        <mxCell id="d_jsHuiSVQQN2BJJEdMS-17" value="&lt;p style=&quot;margin-bottom: 0in; direction: rtl; line-height: 1px; text-align: right; background-image: initial; background-position: initial; background-size: initial; background-repeat: initial; background-attachment: initial; background-origin: initial; background-clip: initial; font-size: medium; margin-top: 0.19in;&quot; align=&quot;left&quot;&gt;&lt;font color=&quot;#222222&quot;&gt;&lt;font face=&quot;Segoe UI, serif&quot;&gt;&lt;font style=&quot;font-size: 12pt;&quot;&gt;Product Development&lt;/font&gt;&lt;/font&gt;&lt;/font&gt;&lt;/p&gt;" style="image;aspect=fixed;html=1;points=[];align=center;fontSize=12;image=img/lib/azure2/general/Resource_Groups.svg;" parent="1" vertex="1">
          <mxGeometry x="230" y="792" width="68" height="64" as="geometry" />
        </mxCell>
        <mxCell id="d_jsHuiSVQQN2BJJEdMS-18" value="" style="edgeStyle=orthogonalEdgeStyle;rounded=0;orthogonalLoop=1;jettySize=auto;html=1;" parent="1" source="d_jsHuiSVQQN2BJJEdMS-19" target="d_jsHuiSVQQN2BJJEdMS-4" edge="1">
          <mxGeometry relative="1" as="geometry" />
        </mxCell>
        <mxCell id="d_jsHuiSVQQN2BJJEdMS-19" value="Sporting Goods&lt;br&gt;" style="image;aspect=fixed;html=1;points=[];align=center;fontSize=12;image=img/lib/azure2/general/Management_Groups.svg;" parent="1" vertex="1">
          <mxGeometry x="320" y="520" width="66" height="64" as="geometry" />
        </mxCell>
        <mxCell id="d_jsHuiSVQQN2BJJEdMS-20" value="" style="edgeStyle=orthogonalEdgeStyle;rounded=0;orthogonalLoop=1;jettySize=auto;html=1;" parent="1" source="d_jsHuiSVQQN2BJJEdMS-21" target="d_jsHuiSVQQN2BJJEdMS-12" edge="1">
          <mxGeometry relative="1" as="geometry" />
        </mxCell>
        <mxCell id="d_jsHuiSVQQN2BJJEdMS-21" value="Apparel&lt;br&gt;" style="image;aspect=fixed;html=1;points=[];align=center;fontSize=12;image=img/lib/azure2/general/Management_Groups.svg;" parent="1" vertex="1">
          <mxGeometry x="702" y="520" width="66" height="64" as="geometry" />
        </mxCell>
        <mxCell id="d_jsHuiSVQQN2BJJEdMS-26" value="" style="edgeStyle=orthogonalEdgeStyle;rounded=0;orthogonalLoop=1;jettySize=auto;html=1;" parent="1" source="d_jsHuiSVQQN2BJJEdMS-22" target="d_jsHuiSVQQN2BJJEdMS-8" edge="1">
          <mxGeometry relative="1" as="geometry" />
        </mxCell>
        <mxCell id="d_jsHuiSVQQN2BJJEdMS-22" value="Root Management Group" style="image;aspect=fixed;html=1;points=[];align=center;fontSize=12;image=img/lib/azure2/general/Management_Groups.svg;" parent="1" vertex="1">
          <mxGeometry x="508.47" y="260" width="64.97" height="63" as="geometry" />
        </mxCell>
        <mxCell id="d_jsHuiSVQQN2BJJEdMS-25" value="" style="edgeStyle=orthogonalEdgeStyle;rounded=0;orthogonalLoop=1;jettySize=auto;html=1;" parent="1" source="d_jsHuiSVQQN2BJJEdMS-23" target="d_jsHuiSVQQN2BJJEdMS-22" edge="1">
          <mxGeometry relative="1" as="geometry" />
        </mxCell>
        <mxCell id="d_jsHuiSVQQN2BJJEdMS-34" value="" style="edgeStyle=orthogonalEdgeStyle;rounded=0;orthogonalLoop=1;jettySize=auto;html=1;" parent="1" target="d_jsHuiSVQQN2BJJEdMS-30" edge="1">
          <mxGeometry relative="1" as="geometry">
            <mxPoint x="1012.4705882352944" y="492.9999999999999" as="sourcePoint" />
          </mxGeometry>
        </mxCell>
        <mxCell id="d_jsHuiSVQQN2BJJEdMS-38" value="" style="edgeStyle=orthogonalEdgeStyle;rounded=0;orthogonalLoop=1;jettySize=auto;html=1;" parent="1" source="d_jsHuiSVQQN2BJJEdMS-30" target="d_jsHuiSVQQN2BJJEdMS-35" edge="1">
          <mxGeometry relative="1" as="geometry" />
        </mxCell>
        <mxCell id="HOAgcyTk43EPcxEQj3Mo-1" value="" style="edgeStyle=orthogonalEdgeStyle;rounded=0;orthogonalLoop=1;jettySize=auto;html=1;" parent="1" source="d_jsHuiSVQQN2BJJEdMS-30" target="d_jsHuiSVQQN2BJJEdMS-35" edge="1">
          <mxGeometry relative="1" as="geometry" />
        </mxCell>
        <mxCell id="d_jsHuiSVQQN2BJJEdMS-30" value="Subscription Customer Feedback&lt;br&gt;" style="image;aspect=fixed;html=1;points=[];align=center;fontSize=12;image=img/lib/azure2/general/Subscriptions.svg;" parent="1" vertex="1">
          <mxGeometry x="990.49" y="530" width="44" height="71" as="geometry" />
        </mxCell>
        <mxCell id="d_jsHuiSVQQN2BJJEdMS-47" value="" style="edgeStyle=orthogonalEdgeStyle;rounded=0;orthogonalLoop=1;jettySize=auto;html=1;" parent="1" source="d_jsHuiSVQQN2BJJEdMS-35" target="d_jsHuiSVQQN2BJJEdMS-42" edge="1">
          <mxGeometry relative="1" as="geometry" />
        </mxCell>
        <mxCell id="d_jsHuiSVQQN2BJJEdMS-48" value="" style="edgeStyle=orthogonalEdgeStyle;rounded=0;orthogonalLoop=1;jettySize=auto;html=1;" parent="1" source="d_jsHuiSVQQN2BJJEdMS-35" target="d_jsHuiSVQQN2BJJEdMS-44" edge="1">
          <mxGeometry relative="1" as="geometry" />
        </mxCell>
        <mxCell id="d_jsHuiSVQQN2BJJEdMS-35" value="VM&#39;s" style="image;aspect=fixed;html=1;points=[];align=center;fontSize=12;image=img/lib/azure2/general/Resource_Groups.svg;" parent="1" vertex="1">
          <mxGeometry x="975.3" y="688" width="74.38" height="70" as="geometry" />
        </mxCell>
        <mxCell id="d_jsHuiSVQQN2BJJEdMS-42" value="Cheap Virtual Machine" style="image;aspect=fixed;html=1;points=[];align=center;fontSize=12;image=img/lib/azure2/compute/Virtual_Machine.svg;" parent="1" vertex="1">
          <mxGeometry x="978.3" y="810" width="69" height="64" as="geometry" />
        </mxCell>
        <mxCell id="d_jsHuiSVQQN2BJJEdMS-44" value="Scale VM&#39;s" style="image;aspect=fixed;html=1;points=[];align=center;fontSize=12;image=img/lib/azure2/compute/VM_Scale_Sets.svg;" parent="1" vertex="1">
          <mxGeometry x="1090" y="806" width="68" height="68" as="geometry" />
        </mxCell>
        <mxCell id="d_jsHuiSVQQN2BJJEdMS-51" style="edgeStyle=orthogonalEdgeStyle;rounded=0;orthogonalLoop=1;jettySize=auto;html=1;" parent="1" source="d_jsHuiSVQQN2BJJEdMS-49" target="d_jsHuiSVQQN2BJJEdMS-30" edge="1">
          <mxGeometry relative="1" as="geometry" />
        </mxCell>
        <object label="A Policy that Allow to deploy only VM&#39;s&amp;nbsp;&lt;br&gt;&amp;nbsp;VM&#39;s that start with Customerfeedback in there initials&lt;br&gt;Doesn&#39;t allow to deploy VM&#39;s with high preformance hardwere" Policy="Allow to Deploy VM&#39;s named CustomerFeedback" id="d_jsHuiSVQQN2BJJEdMS-49">
          <mxCell style="image;aspect=fixed;html=1;points=[];align=center;fontSize=12;image=img/lib/azure2/management_governance/Policy.svg;" parent="1" vertex="1">
            <mxGeometry x="1390" y="573.5" width="60" height="64" as="geometry" />
          </mxCell>
        </object>
        <mxCell id="d_jsHuiSVQQN2BJJEdMS-53" style="edgeStyle=orthogonalEdgeStyle;rounded=0;orthogonalLoop=1;jettySize=auto;html=1;" parent="1" source="d_jsHuiSVQQN2BJJEdMS-52" target="d_jsHuiSVQQN2BJJEdMS-30" edge="1">
          <mxGeometry relative="1" as="geometry" />
        </mxCell>
        <mxCell id="d_jsHuiSVQQN2BJJEdMS-52" value="Cost Analysis&lt;br&gt;" style="image;aspect=fixed;html=1;points=[];align=center;fontSize=12;image=img/lib/azure2/general/Cost_Analysis.svg;" parent="1" vertex="1">
          <mxGeometry x="1190" y="510" width="60" height="70" as="geometry" />
        </mxCell>
        <mxCell id="d_jsHuiSVQQN2BJJEdMS-55" style="edgeStyle=orthogonalEdgeStyle;rounded=0;orthogonalLoop=1;jettySize=auto;html=1;" parent="1" source="d_jsHuiSVQQN2BJJEdMS-54" target="d_jsHuiSVQQN2BJJEdMS-35" edge="1">
          <mxGeometry relative="1" as="geometry" />
        </mxCell>
        <mxCell id="d_jsHuiSVQQN2BJJEdMS-54" value="High Cost Virtual Machine" style="image;aspect=fixed;html=1;points=[];align=center;fontSize=12;image=img/lib/azure2/compute/Virtual_Machine.svg;" parent="1" vertex="1">
          <mxGeometry x="1240" y="746" width="69" height="64" as="geometry" />
        </mxCell>
        <mxCell id="d_jsHuiSVQQN2BJJEdMS-57" style="edgeStyle=orthogonalEdgeStyle;rounded=0;orthogonalLoop=1;jettySize=auto;html=1;" parent="1" source="d_jsHuiSVQQN2BJJEdMS-56" target="d_jsHuiSVQQN2BJJEdMS-54" edge="1">
          <mxGeometry relative="1" as="geometry" />
        </mxCell>
        <mxCell id="d_jsHuiSVQQN2BJJEdMS-56" value="Alert&lt;br&gt;" style="image;aspect=fixed;html=1;points=[];align=center;fontSize=12;image=img/lib/azure2/management_governance/Alerts.svg;" parent="1" vertex="1">
          <mxGeometry x="1353" y="762.5300000000001" width="37" height="30.93" as="geometry" />
        </mxCell>
        <mxCell id="d_jsHuiSVQQN2BJJEdMS-67" style="edgeStyle=orthogonalEdgeStyle;rounded=0;orthogonalLoop=1;jettySize=auto;html=1;" parent="1" source="d_jsHuiSVQQN2BJJEdMS-58" target="d_jsHuiSVQQN2BJJEdMS-21" edge="1">
          <mxGeometry relative="1" as="geometry" />
        </mxCell>
        <mxCell id="d_jsHuiSVQQN2BJJEdMS-58" value="Billing account contributor&#x9;" style="image;aspect=fixed;html=1;points=[];align=center;fontSize=12;image=img/lib/azure2/intune/Azure_AD_Roles_and_Administrators.svg;" parent="1" vertex="1">
          <mxGeometry x="810" y="530" width="64" height="64" as="geometry" />
        </mxCell>
        <mxCell id="d_jsHuiSVQQN2BJJEdMS-64" style="edgeStyle=orthogonalEdgeStyle;rounded=0;orthogonalLoop=1;jettySize=auto;html=1;" parent="1" source="d_jsHuiSVQQN2BJJEdMS-59" target="d_jsHuiSVQQN2BJJEdMS-8" edge="1">
          <mxGeometry relative="1" as="geometry" />
        </mxCell>
        <mxCell id="d_jsHuiSVQQN2BJJEdMS-59" value="Custom AD role IT administrator&amp;nbsp;&lt;br&gt;+ Billing Reader permission" style="image;aspect=fixed;html=1;points=[];align=center;fontSize=12;image=img/lib/azure2/identity/Custom_Azure_AD_Roles.svg;" parent="1" vertex="1">
          <mxGeometry x="660" y="350" width="68" height="68" as="geometry" />
        </mxCell>
        <mxCell id="d_jsHuiSVQQN2BJJEdMS-65" style="edgeStyle=orthogonalEdgeStyle;rounded=0;orthogonalLoop=1;jettySize=auto;html=1;" parent="1" source="d_jsHuiSVQQN2BJJEdMS-60" target="d_jsHuiSVQQN2BJJEdMS-59" edge="1">
          <mxGeometry relative="1" as="geometry" />
        </mxCell>
        <mxCell id="d_jsHuiSVQQN2BJJEdMS-60" value="Give read-only access to billing" style="image;aspect=fixed;html=1;points=[];align=center;fontSize=12;image=img/lib/azure2/general/Cost_Management_and_Billing.svg;" parent="1" vertex="1">
          <mxGeometry x="768" y="290" width="68" height="68" as="geometry" />
        </mxCell>
        <mxCell id="d_jsHuiSVQQN2BJJEdMS-70" style="edgeStyle=orthogonalEdgeStyle;rounded=0;orthogonalLoop=1;jettySize=auto;html=1;" parent="1" source="d_jsHuiSVQQN2BJJEdMS-69" target="d_jsHuiSVQQN2BJJEdMS-19" edge="1">
          <mxGeometry relative="1" as="geometry" />
        </mxCell>
        <mxCell id="d_jsHuiSVQQN2BJJEdMS-69" value="Billing account contributor&#x9;" style="image;aspect=fixed;html=1;points=[];align=center;fontSize=12;image=img/lib/azure2/intune/Azure_AD_Roles_and_Administrators.svg;" parent="1" vertex="1">
          <mxGeometry x="200" y="513" width="64" height="64" as="geometry" />
        </mxCell>
        <mxCell id="d_jsHuiSVQQN2BJJEdMS-76" style="edgeStyle=orthogonalEdgeStyle;rounded=0;orthogonalLoop=1;jettySize=auto;html=1;entryX=0.882;entryY=0.794;entryDx=0;entryDy=0;entryPerimeter=0;" parent="1" source="d_jsHuiSVQQN2BJJEdMS-75" target="d_jsHuiSVQQN2BJJEdMS-44" edge="1">
          <mxGeometry relative="1" as="geometry" />
        </mxCell>
        <mxCell id="d_jsHuiSVQQN2BJJEdMS-75" value="Alert&lt;br&gt;" style="image;aspect=fixed;html=1;points=[];align=center;fontSize=12;image=img/lib/azure2/management_governance/Alerts.svg;" parent="1" vertex="1">
          <mxGeometry x="1203.89" y="847.07" width="32.22" height="26.93" as="geometry" />
        </mxCell>
        <mxCell id="CHr8Pcl43sH1Nul4fG_y-4" style="edgeStyle=orthogonalEdgeStyle;rounded=0;orthogonalLoop=1;jettySize=auto;html=1;" parent="1" source="d_jsHuiSVQQN2BJJEdMS-77" target="CHr8Pcl43sH1Nul4fG_y-3" edge="1">
          <mxGeometry relative="1" as="geometry" />
        </mxCell>
        <mxCell id="d_jsHuiSVQQN2BJJEdMS-77" value="Billing account contributor&#x9;" style="image;aspect=fixed;html=1;points=[];align=center;fontSize=12;image=img/lib/azure2/intune/Azure_AD_Roles_and_Administrators.svg;" parent="1" vertex="1">
          <mxGeometry x="1209" y="390" width="64" height="64" as="geometry" />
        </mxCell>
        <mxCell id="HOAgcyTk43EPcxEQj3Mo-3" style="edgeStyle=orthogonalEdgeStyle;rounded=0;orthogonalLoop=1;jettySize=auto;html=1;entryX=0.975;entryY=0.235;entryDx=0;entryDy=0;entryPerimeter=0;" parent="1" source="HOAgcyTk43EPcxEQj3Mo-2" target="d_jsHuiSVQQN2BJJEdMS-35" edge="1">
          <mxGeometry relative="1" as="geometry" />
        </mxCell>
        <mxCell id="HOAgcyTk43EPcxEQj3Mo-2" value="Tags for Billing analysis&lt;br&gt;" style="image;aspect=fixed;html=1;points=[];align=center;fontSize=12;image=img/lib/azure2/general/Tags.svg;" parent="1" vertex="1">
          <mxGeometry x="1100" y="622" width="60" height="65" as="geometry" />
        </mxCell>
        <mxCell id="CHr8Pcl43sH1Nul4fG_y-5" style="edgeStyle=orthogonalEdgeStyle;rounded=0;orthogonalLoop=1;jettySize=auto;html=1;" parent="1" source="HOAgcyTk43EPcxEQj3Mo-4" target="CHr8Pcl43sH1Nul4fG_y-3" edge="1">
          <mxGeometry relative="1" as="geometry" />
        </mxCell>
        <mxCell id="HOAgcyTk43EPcxEQj3Mo-4" value="Monitor Billing of Customer Feedback" style="image;aspect=fixed;html=1;points=[];align=center;fontSize=12;image=img/lib/azure2/management_governance/Monitor.svg;" parent="1" vertex="1">
          <mxGeometry x="1160" y="280" width="64" height="64" as="geometry" />
        </mxCell>
        <mxCell id="d_jsHuiSVQQN2BJJEdMS-23" value="Tailwind Traders -Tanent&lt;br&gt;" style="image;aspect=fixed;html=1;points=[];align=center;fontSize=12;image=img/lib/azure2/general/Management_Groups.svg;" parent="1" vertex="1">
          <mxGeometry x="506.94000000000005" y="90" width="68.03" height="65.97" as="geometry" />
        </mxCell>
        <mxCell id="CHr8Pcl43sH1Nul4fG_y-3" value="MG - Customer Feedback" style="image;aspect=fixed;html=1;points=[];align=center;fontSize=12;image=img/lib/azure2/general/Management_Groups.svg;" parent="1" vertex="1">
          <mxGeometry x="976.4" y="426.5" width="72.19" height="70" as="geometry" />
        </mxCell>
      </root>
    </mxGraphModel>
  </diagram>
</mxfile>
